<svg width="80" height="80" viewBox="0 0 80 80" fill="none" xmlns="http://www.w3.org/2000/svg">
<g clip-path="url(#clip0_46_63)">
<path d="M69.5411 47.8089C68.2528 48.6826 66.5766 48.7918 65.1775 48.0956C63.5706 47.1945 62.6978 45.0921 62.6978 42.2389V33.4608C62.6978 29.2423 61.0078 26.2526 58.168 25.4334C53.3887 24.0546 49.8147 29.8293 48.4433 32L39.9792 45.5017V29.0239C39.8823 25.2287 38.6355 22.9488 36.2528 22.2662C34.6874 21.8157 32.3325 21.9932 30.0468 25.4334L11.1238 55.372C8.6026 50.6348 7.28658 45.3515 7.31429 40C7.31429 21.9522 21.9429 7.27645 39.9792 7.27645C58.0156 7.27645 72.6857 21.9522 72.6857 40V40.0956C72.6857 40.0956 72.6857 40.1638 72.6857 40.1911C72.8658 43.6724 71.716 46.4573 69.5411 47.8089ZM80 40V39.8225C79.8476 17.843 61.9498 0 39.9792 0C18.0087 0 0 17.9386 0 40C0 62.0614 17.9255 80 39.9792 80C50.0918 80 59.8164 76.1775 67.1584 69.3242C68.6407 67.9454 68.7238 65.6519 67.3524 64.1775C66.0225 62.7304 63.7645 62.6212 62.2822 63.9317L62.2684 63.9454C49.316 76.0546 28.8554 75.5222 16.568 62.7577C16.2632 62.4437 15.9723 62.1297 15.6814 61.802L32.7065 34.8123V47.2628C32.7065 53.2423 35.0615 55.1809 37.0286 55.7543C38.9957 56.3276 42.0294 55.9317 45.1879 50.8669L54.6078 35.8498C54.8987 35.372 55.1758 34.9488 55.439 34.5939V42.2253C55.439 47.8225 57.7108 52.2867 61.7143 54.4983C65.413 56.4642 69.9013 56.2867 73.4338 54.0341C77.8251 51.2218 80.2217 46.1297 79.9723 40H80Z" fill="#000000"/>
</g>
<defs>
<clipPath id="clip0_46_63">
<rect width="80" height="80" fill="white"/>
</clipPath>
</defs>
</svg>
