<svg width="80" height="80" viewBox="0 0 80 80" fill="none" xmlns="http://www.w3.org/2000/svg">
<g clip-path="url(#clip0_46_65)">
<path fill-rule="evenodd" clip-rule="evenodd" d="M39.7922 0.103966C61.8182 0.103966 79.5844 17.8702 79.5844 40.0001C79.5844 61.8183 61.6104 79.7923 39.4805 79.6884C18.0779 79.4806 0.103882 61.8183 0.103882 39.8962C0.103882 17.8702 17.7662 7.02701e-05 39.7922 0.103966ZM9.55843 60.6754C9.55843 61.0197 9.70104 61.2214 9.86811 61.4576C9.90271 61.5066 9.93836 61.557 9.97401 61.6105C11.5325 63.7923 13.2987 65.8702 15.3766 67.6364C16.3117 68.4676 17.2467 69.2988 18.2857 70.026C21.1948 71.8962 24.2078 73.6624 27.5325 74.8053C30.2338 75.7403 33.0389 76.4676 35.8441 76.7793C38.026 76.9871 40.3117 77.091 42.4935 76.7793C42.8582 76.7185 43.2318 76.6755 43.6091 76.6321C44.5216 76.527 45.4556 76.4195 46.3376 76.052C46.4726 76.1195 46.5637 76.0556 46.6394 76.0024C46.6803 75.9737 46.7168 75.9481 46.7532 75.9481C49.3506 75.5325 51.8441 74.7014 54.3377 73.6624C62.4416 70.1299 68.5714 64.4157 72.5195 56.5196C76.0519 49.5585 77.1948 42.1819 76.0519 34.4936C75.013 27.117 71.8961 20.6754 66.9091 15.2728C60.2597 7.68838 51.7402 3.74033 41.6623 3.11696C37.1948 2.80527 32.7273 3.42864 28.4675 4.88319C21.5065 7.1689 15.7922 11.117 11.1169 16.8312C5.81817 23.3767 3.22076 30.8572 2.90908 39.1689C2.80518 41.2468 3.01297 43.2209 3.32466 45.2988C3.94804 49.9741 5.50648 54.4416 7.89609 58.4936C8.2431 58.8406 8.52573 59.252 8.81566 59.674C9.04655 60.0101 9.28207 60.353 9.55843 60.6754ZM46.3376 75.9482C45.2777 76.4781 44.1427 76.5575 43.0602 76.6333C42.8695 76.6466 42.6803 76.6599 42.4935 76.6754C40.3116 76.9871 38.0259 76.8832 35.8441 76.6754C33.0389 76.3637 30.2337 75.6365 27.5324 74.7014C24.2078 73.5585 21.1948 71.7923 18.2857 69.9222C17.2468 69.1949 16.3117 68.3638 15.3767 67.5327L15.3766 67.5326C13.2987 65.7663 11.5324 63.6884 9.97398 61.5066C9.76619 61.1949 9.5584 60.8832 9.5584 60.5715C12.0519 54.9611 12.987 49.0391 13.5065 43.0131C13.548 42.452 13.5854 41.891 13.6228 41.33C13.7724 39.0858 13.922 36.8417 14.3376 34.5975C14.8571 31.3767 16.1039 28.4676 18.3896 25.9741C20.4675 23.7923 23.0649 22.3378 25.8701 21.2988C28.1558 20.3637 30.5454 19.5326 33.1428 19.4287C35.5122 19.3256 37.7795 19.6312 40.0458 20.1428C42.2138 19.5296 44.4828 19.3305 46.6494 20.1558C48.2543 20.7577 49.4718 21.8437 50.0215 23.5075C50.075 23.533 50.1284 23.5587 50.1818 23.5845C52.7792 24.6235 55.4805 25.6624 58.1818 26.4936C60.987 27.3248 63.7922 28.2598 66.1818 30.0261C69.1948 32.3118 70.0259 35.2209 68.6753 38.7533C67.8441 40.9352 66.2857 42.5975 64.7272 44.2598C63.6052 45.4235 62.4498 46.5539 61.2945 47.6843L61.2944 47.6843C59.5615 49.3799 57.8285 51.0755 56.2078 52.8832C53.0909 56.5196 50.2857 60.2598 48.3116 64.6235C46.6493 68.2598 45.7142 72.0001 46.3376 75.9482ZM66.3896 41.7663C66.2857 41.7663 66.1818 41.7663 66.0779 41.8702C65.974 41.8702 65.8701 41.9741 65.8701 42.078V42.1819C65.974 42.1819 66.0779 42.078 66.0779 41.9741L66.3896 41.7663ZM27.43 30.612C27.429 30.659 27.4285 30.7061 27.4285 30.7533C27.4285 30.8143 27.4293 30.8751 27.4308 30.9357C27.5251 34.7998 30.606 37.9217 34.4926 37.9222L34.4935 37.9222C36.4767 37.9222 38.2502 37.1094 39.5374 35.8001C40.8485 34.5126 41.6624 32.738 41.6624 30.7533L41.6622 30.699C41.6619 30.6682 41.6615 30.6375 41.6609 30.6068C41.5829 26.8277 38.4952 23.6884 34.5974 23.6884C30.6966 23.6884 27.5057 26.7312 27.43 30.612ZM40.4155 45.5066L40.4162 45.5076L40.4157 45.5067L40.4155 45.5066ZM49.1428 47.1689C46.4564 47.3542 43.7701 47.2091 41.3046 45.9972C43.7701 47.2102 46.4565 47.3654 49.1429 47.2727C53.2987 47.0649 57.2468 46.1299 60.987 44.4675C62.4416 43.8441 63.8961 43.2208 65.2468 42.3896C65.3456 42.2908 65.4444 42.192 65.6325 42.2719C65.6442 42.2442 65.6542 42.2143 65.6623 42.1819C65.4545 42.078 65.3506 42.1819 65.2467 42.2858C63.8961 43.117 62.4415 43.7404 60.987 44.3637C57.2467 45.9222 53.2987 46.9611 49.1428 47.1689ZM60.182 39.3708C60.9575 39.2997 61.6104 38.6003 61.6104 37.7144C61.6104 36.8832 60.8831 36.1559 59.948 36.2598C59.4285 36.2598 58.9902 36.5439 58.7345 36.9599C58.5811 37.2095 58.4935 37.5066 58.4935 37.8183C58.4935 37.8183 58.4934 37.8183 58.4934 37.8184C58.4934 37.8234 58.4935 37.8285 58.4935 37.8335C58.5002 38.7514 59.1103 39.3651 60.0257 39.3766C60.0344 39.3767 60.0432 39.3768 60.0519 39.3768C60.0959 39.3768 60.1392 39.3748 60.182 39.3708Z" fill="#111827"/>
<path fill-rule="evenodd" clip-rule="evenodd" d="M66.0779 41.9742C66.0779 42.0781 65.974 42.1819 65.8701 42.1819C65.8701 41.9742 65.974 41.8703 66.0779 41.9742ZM66.3896 41.7664L66.0779 41.9742L65.974 41.8703C66.1818 41.7664 66.2857 41.7664 66.3896 41.7664Z" fill="#111827"/>
<path fill-rule="evenodd" clip-rule="evenodd" d="M39.5844 30.8573C39.5844 33.5586 37.4026 35.8443 34.7013 35.8443H34.5974C31.8961 35.8443 29.6104 33.6625 29.6104 30.8573V30.7534C29.6104 27.9482 31.8961 25.7664 34.5974 25.7664C37.2987 25.7664 39.5844 28.0521 39.5844 30.8573Z" fill="#111827"/>
</g>
<defs>
<clipPath id="clip0_46_65">
<rect width="80" height="80" fill="white"/>
</clipPath>
</defs>
</svg>
